<svg width="24" height="24" viewBox="0 0 24 24" fill="none" xmlns="http://www.w3.org/2000/svg">
<path fill-rule="evenodd" clip-rule="evenodd" d="M22.7071 8.29289C23.0976 8.68342 23.0976 9.31658 22.7071 9.70711L16.7071 15.7071C16.3166 16.0976 15.6834 16.0976 15.2929 15.7071C14.9024 15.3166 14.9024 14.6834 15.2929 14.2929L21.2929 8.29289C21.6834 7.90237 22.3166 7.90237 22.7071 8.29289Z" fill="#0A0A0A"/>
<path fill-rule="evenodd" clip-rule="evenodd" d="M15.2929 8.29289C15.6834 7.90237 16.3166 7.90237 16.7071 8.29289L22.7071 14.2929C23.0976 14.6834 23.0976 15.3166 22.7071 15.7071C22.3166 16.0976 21.6834 16.0976 21.2929 15.7071L15.2929 9.70711C14.9024 9.31658 14.9024 8.68342 15.2929 8.29289Z" fill="#0A0A0A"/>
<path fill-rule="evenodd" clip-rule="evenodd" d="M9.96312 3.03261C10.2935 2.96706 10.6358 3.0008 10.947 3.12958C11.2582 3.25836 11.5243 3.47642 11.7118 3.75632C11.8992 4.03622 11.9995 4.36539 12 4.70227V19.2975C11.9995 19.6344 11.8992 19.9636 11.7118 20.2435C11.5243 20.5234 11.2582 20.7415 10.947 20.8703C10.6358 20.9991 10.2935 21.0328 9.96312 20.9673C9.63277 20.9017 9.32859 20.7392 9.09013 20.5013L5.70392 17.117C5.66662 17.0795 5.62223 17.0497 5.57331 17.0295C5.52438 17.0092 5.47191 16.9989 5.41893 16.999H3C2.46969 16.999 1.96102 16.7884 1.58592 16.4134C1.2108 16.0384 1 15.5297 1 14.9992V9.00012C1 8.46966 1.2108 7.96101 1.58592 7.58604C1.96102 7.21108 2.46969 7.00049 3 7.00049H5.41893C5.47191 7.00065 5.52438 6.99029 5.57331 6.97003C5.62223 6.94977 5.66662 6.92002 5.70392 6.88252L9.09013 3.49856C9.32859 3.26068 9.63277 3.09815 9.96312 3.03261ZM3 9.00049H5.41473C5.73167 9.0012 6.04563 8.93914 6.33848 8.81787C6.63131 8.69662 6.89722 8.51857 7.12087 8.29399L10 5.41678V18.5829L7.12087 15.7054C6.89722 15.4808 6.63131 15.3027 6.33848 15.1815C6.04563 15.0602 5.73167 14.9981 5.41473 14.9988H3V9.00049Z" fill="#0A0A0A"/>
</svg>
