<svg width="24" height="24" viewBox="0 0 24 24" fill="none" xmlns="http://www.w3.org/2000/svg">
<path fill-rule="evenodd" clip-rule="evenodd" d="M4.56681 3.0987C4.91328 2.93218 5.32453 2.979 5.6247 3.21913L15.6247 11.2191C15.8619 11.4089 16 11.6962 16 12C16 12.3038 15.8619 12.5911 15.6247 12.7809L5.6247 20.7809C5.32453 21.021 4.91328 21.0678 4.56681 20.9013C4.22035 20.7348 4 20.3844 4 20V4C4 3.6156 4.22035 3.26522 4.56681 3.0987Z" fill="#0A0A0A"/>
<path fill-rule="evenodd" clip-rule="evenodd" d="M19 4C19.5523 4 20 4.44772 20 5V19C20 19.5523 19.5523 20 19 20C18.4477 20 18 19.5523 18 19V5C18 4.44772 18.4477 4 19 4Z" fill="#0A0A0A"/>
</svg>
