<svg width="24" height="24" viewBox="0 0 24 24" fill="none" xmlns="http://www.w3.org/2000/svg">
<path fill-rule="evenodd" clip-rule="evenodd" d="M9.76796 20.134C10.2462 19.8578 10.8578 20.0217 11.134 20.5C11.2218 20.652 11.348 20.7782 11.5 20.8659C11.652 20.9537 11.8245 20.9999 12 20.9999C12.1755 20.9999 12.348 20.9537 12.5 20.8659C12.652 20.7782 12.7782 20.652 12.866 20.5C13.1422 20.0217 13.7538 19.8578 14.232 20.134C14.7103 20.4102 14.8742 21.0218 14.598 21.5C14.3347 21.9561 13.956 22.3347 13.4999 22.598C13.0439 22.8613 12.5266 22.9999 12 22.9999C11.4734 22.9999 10.9561 22.8613 10.5001 22.598C10.044 22.3347 9.66532 21.9561 9.402 21.5C9.12584 21.0218 9.28968 20.4102 9.76796 20.134Z" fill="black"/>
<path fill-rule="evenodd" clip-rule="evenodd" d="M7.05026 3.05025C8.36301 1.7375 10.1435 1 12 1C13.8565 1 15.637 1.7375 16.9498 3.05025C18.2625 4.36301 19 6.14349 19 8C19 10.1449 19.3359 11.479 19.7754 12.4093C20.216 13.3419 20.792 13.9444 21.4578 14.6307C21.4652 14.6384 21.4725 14.6461 21.4796 14.654C21.7405 14.9407 21.9124 15.297 21.9745 15.6796C22.0366 16.0622 21.9862 16.4546 21.8294 16.809C21.6726 17.1635 21.4162 17.4648 21.0914 17.6762C20.7666 17.8876 20.3875 18.0001 20 18C19.9999 18 20.0001 18 20 18H4C3.61236 17.9997 3.23242 17.8868 2.90778 17.6749C2.58314 17.4631 2.32706 17.1615 2.17068 16.8068C2.01431 16.4521 1.96439 16.0596 2.02698 15.677C2.08958 15.2945 2.262 14.9384 2.52327 14.652C2.52998 14.6447 2.53679 14.6374 2.54371 14.6303C3.20824 13.9442 3.78387 13.3419 4.22444 12.4092C4.66389 11.479 5 10.1447 5 8C5 6.14348 5.7375 4.36301 7.05026 3.05025ZM12 3C10.6739 3 9.40215 3.52678 8.46447 4.46447C7.52679 5.40215 7 6.67392 7 8C7 10.3543 6.63061 11.998 6.03282 13.2635C5.44322 14.5116 4.6616 15.3185 4.00397 15.9973L4.00136 16H19.9996C19.34 15.3201 18.5572 14.5128 17.9671 13.2637C17.3691 11.998 17 10.3541 17 8C17 6.67392 16.4732 5.40215 15.5355 4.46447C14.5979 3.52678 13.3261 3 12 3Z" fill="black"/>
</svg>
