<svg width="24" height="24" viewBox="0 0 24 24" fill="none" xmlns="http://www.w3.org/2000/svg">
<path fill-rule="evenodd" clip-rule="evenodd" d="M12.2098 1.01727C12.2409 1.01728 12.2719 1.01778 12.3028 1.01875C13.0715 1.0382 13.8045 1.35226 14.3493 1.89756C14.9066 2.45548 15.2217 3.21023 15.2268 3.99834L15.232 4.15331C15.2324 4.16452 15.2326 4.17573 15.2326 4.18695C15.2326 4.36248 15.2788 4.53493 15.3666 4.68695C15.4541 4.8386 15.58 4.96459 15.7315 5.05233L15.7326 5.05297L16.1641 5.30036C16.316 5.38804 16.4882 5.43425 16.6636 5.43434C16.8388 5.43443 17.011 5.38847 17.1629 5.30107L17.3182 5.21139C18.0073 4.81356 18.8261 4.70576 19.5947 4.91169C20.3632 5.11761 21.0185 5.62041 21.4163 6.30946L21.6363 6.69052C22.0341 7.37957 22.1419 8.19843 21.936 8.96697C21.8258 9.37801 21.6308 9.75665 21.3677 10.0808C21.1407 10.3642 20.8621 10.6067 20.543 10.7937L20.4114 10.8757C20.4019 10.8816 20.3923 10.8874 20.3826 10.893C20.2306 10.9807 20.1043 11.107 20.0166 11.259C19.9463 11.3806 19.9027 11.5153 19.8881 11.6542C19.8854 11.6839 19.8841 11.7137 19.8841 11.7436L19.8841 11.7466L19.8833 11.9994L19.8841 12.2564C19.8841 12.2864 19.8855 12.3164 19.8881 12.3462C19.9028 12.4849 19.9464 12.6195 20.0166 12.741C20.1043 12.893 20.2306 13.0192 20.3826 13.107C20.3923 13.1126 20.4019 13.1184 20.4114 13.1243L20.543 13.2063C20.8619 13.3932 21.1404 13.6354 21.3672 13.9185C21.6305 14.2429 21.8258 14.6217 21.936 15.033C22.1419 15.8016 22.0341 16.6204 21.6363 17.3095L21.4163 17.6905C21.0185 18.3796 20.3632 18.8824 19.5947 19.0883C18.8261 19.2942 18.0073 19.1864 17.3182 18.7886L17.1632 18.6991C17.0114 18.6118 16.8388 18.5656 16.6636 18.5656C16.4882 18.5657 16.316 18.6119 16.1641 18.6996L16.1615 18.7011L15.7326 18.947L15.7315 18.9477C15.58 19.0354 15.4541 19.1614 15.3666 19.313C15.2788 19.4651 15.2326 19.6375 15.2326 19.813C15.2326 19.8243 15.2324 19.8355 15.232 19.8467L15.2268 20.0016C15.2217 20.7898 14.9066 21.5445 14.3493 22.1024C13.8046 22.6477 13.0716 22.9618 12.3029 22.9812C12.2719 22.9822 12.2409 22.9827 12.2098 22.9827H12.2082L12.0032 22.9825L11.7918 22.9827H11.7902C11.7583 22.9827 11.7264 22.9822 11.6946 22.9812C10.9268 22.9611 10.1949 22.6471 9.65072 22.1024C9.09337 21.5445 8.77829 20.7897 8.7732 20.0016L8.76798 19.8467C8.7676 19.8355 8.76741 19.8242 8.76741 19.813C8.76741 19.6375 8.72121 19.4651 8.63344 19.313C8.54588 19.1614 8.42002 19.0354 8.26847 18.9476L8.26741 18.947L7.83853 18.7011L7.83591 18.6996C7.68404 18.6119 7.51178 18.5657 7.33642 18.5656C7.16913 18.5656 7.00461 18.6074 6.85789 18.6873C6.85535 18.6887 6.85282 18.6902 6.85029 18.6916C6.84348 18.6956 6.83662 18.6994 6.82972 18.7032L6.6818 18.7886C5.99275 19.1864 5.17388 19.2942 4.40534 19.0883C3.6368 18.8824 2.98155 18.3796 2.58372 17.6905L2.36372 17.3095C1.9659 16.6204 1.85809 15.8015 2.06402 15.033C2.17435 14.6213 2.36987 14.2421 2.6336 13.9175C2.86034 13.6348 3.13849 13.393 3.45699 13.2063L3.58857 13.1243C3.59809 13.1184 3.60771 13.1126 3.61742 13.107C3.76944 13.0192 3.89567 12.893 3.98344 12.741C4.05359 12.6195 4.09718 12.485 4.11187 12.3462C4.11455 12.3164 4.11591 12.2865 4.11591 12.2564L4.11591 12.2534L4.11668 11.9996L4.11591 11.7466L4.11591 11.7436C4.11591 11.7136 4.11456 11.6838 4.1119 11.6541C4.09725 11.5152 4.05364 11.3806 3.98344 11.259C3.89567 11.107 3.76943 10.9807 3.61741 10.893C3.6077 10.8874 3.59809 10.8816 3.58857 10.8757L3.457 10.7937C3.13832 10.6069 2.86003 10.3649 2.63321 10.082C2.36968 9.75756 2.17429 9.37851 2.06402 8.96698C1.85809 8.19844 1.9659 7.37958 2.36373 6.69052L2.58373 6.30947C2.98155 5.62042 3.63681 5.11762 4.40534 4.91169C5.17388 4.70576 5.99275 4.81357 6.6818 5.21139L6.8368 5.30088C6.98876 5.38841 7.16106 5.43443 7.33642 5.43434C7.51178 5.43425 7.68404 5.38805 7.83591 5.30037L7.83853 5.29885L8.26742 5.05298L8.26848 5.05236C8.42002 4.96462 8.54588 4.83862 8.63344 4.68695C8.72121 4.53494 8.76742 4.36249 8.76742 4.18695C8.76742 4.17574 8.7676 4.16453 8.76798 4.15332L8.7732 3.99837C8.77829 3.21026 9.09337 2.45549 9.65073 1.89757C10.2124 1.33532 10.9742 1.01891 11.7689 1.0178L12.2098 1.01727ZM13.2205 19.7702C13.2265 19.2589 13.3631 18.7574 13.6177 18.3134C13.8781 17.8592 14.2528 17.4811 14.7046 17.2166L14.7098 17.2135L15.1481 16.9605L15.1501 16.9594C15.6063 16.694 16.1246 16.5537 16.6524 16.5527C17.178 16.5516 17.6945 16.6887 18.1504 16.95L18.2967 17.0312L18.3101 17.0388C18.5397 17.1709 18.8124 17.2066 19.0682 17.1379C19.3239 17.0692 19.5419 16.902 19.6745 16.6729L19.893 16.2934C20.025 16.0638 20.0607 15.7911 19.992 15.5353C19.9564 15.4026 19.8942 15.28 19.8105 15.1742C19.7351 15.0825 19.6431 15.004 19.5382 14.9434L19.3814 14.8529C18.9261 14.5894 18.5481 14.2108 18.2853 13.7551C18.0701 13.3819 17.9383 12.9678 17.8976 12.5412C17.8876 12.4417 17.8826 12.3415 17.8826 12.241L17.8826 12.238L17.8833 11.9995L17.8826 11.762L17.8826 11.759C17.8826 11.6589 17.8876 11.559 17.8975 11.4599C17.9381 11.0329 18.0699 10.6184 18.2853 10.2449C18.5481 9.78918 18.9261 9.41057 19.3814 9.14705L19.5382 9.05654C19.6432 8.99594 19.7352 8.91742 19.8107 8.82556C19.8942 8.71986 19.9564 8.59734 19.992 8.46469C20.0603 8.21037 20.0255 7.93944 19.8953 7.7107L19.666 7.32262C19.5335 7.09325 19.3154 6.92582 19.0596 6.85713C18.8084 6.78969 18.541 6.8228 18.3141 6.94905L18.1872 7.02809C18.1777 7.03402 18.1681 7.03979 18.1584 7.0454C17.7006 7.30972 17.1811 7.44838 16.6524 7.44733C16.1245 7.44628 15.6062 7.30595 15.1499 7.04051L15.1481 7.03943L14.7219 6.7934L14.7201 6.79238C14.2621 6.52992 13.8814 6.15123 13.6165 5.69454C13.3528 5.23993 13.2133 4.72408 13.2116 4.19866L13.2088 4.0313L13.2087 4.01587C13.2083 3.75096 13.1028 3.49703 12.9154 3.3098C12.7368 3.13133 12.4976 3.02739 12.2461 3.01797C12.2417 3.01789 12.2374 3.01784 12.233 3.01781L11.7823 3.02231C11.5174 3.02241 11.2633 3.12757 11.0759 3.3148C10.8919 3.4986 10.7869 3.7467 10.7828 4.00635L10.7878 4.15573C10.7882 4.16694 10.7884 4.17815 10.7884 4.18936C10.7884 4.71799 10.6487 5.23724 10.3835 5.69453C10.1186 6.1512 9.73796 6.52987 9.27994 6.79232L8.8501 7.04049C8.39379 7.30593 7.8755 7.44628 7.34757 7.44732C6.82203 7.44836 6.3055 7.31133 5.84966 7.05002L5.70331 6.96878L5.68988 6.96119C5.46028 6.82906 5.18763 6.79343 4.93178 6.86212C4.67614 6.93076 4.45815 7.09795 4.32558 7.32703L4.10706 7.70658C3.97501 7.93614 3.93931 8.2089 4.00799 8.46468C4.04365 8.5975 4.10591 8.72015 4.18963 8.82594C4.26509 8.91764 4.35698 8.99603 4.4618 9.05655L4.61857 9.14706C5.07391 9.41057 5.45195 9.78919 5.71476 10.2449C5.93008 10.6183 6.06185 11.0327 6.10244 11.4596C6.11239 11.5588 6.11741 11.6588 6.11741 11.759L6.11741 11.762L6.11669 11.9996L6.11742 12.241C6.11742 12.3415 6.11236 12.4418 6.10235 12.5413C6.06166 12.9679 5.92992 13.3819 5.71475 13.7551C5.45194 14.2108 5.07391 14.5894 4.61857 14.8529L4.4618 14.9434C4.35704 15.0039 4.2652 15.0823 4.18977 15.1739C4.10598 15.2797 4.04367 15.4024 4.00799 15.5353C3.93931 15.7911 3.97491 16.0637 4.10696 16.2932L4.32526 16.6724C4.45783 16.9015 4.67615 17.0692 4.93179 17.1379C5.18763 17.2066 5.46028 17.1709 5.68989 17.0388C5.70809 17.0283 5.72662 17.0184 5.74545 17.0091L5.88035 16.9424C5.88267 16.9411 5.88499 16.9398 5.88731 16.9386C6.33157 16.6904 6.83189 16.5592 7.34123 16.5577C7.86477 16.5561 8.37962 16.6915 8.8346 16.9506L8.83985 16.9536L9.27807 17.2066L9.28003 17.2077C9.73801 17.4702 10.1187 17.8488 10.3835 18.3055C10.6472 18.7601 10.7868 19.2759 10.7884 19.8014L10.7912 19.9687L10.7913 19.9841C10.7917 20.249 10.8972 20.503 11.0846 20.6902C11.2631 20.8685 11.502 20.9724 11.7531 20.982C11.7593 20.9821 11.7654 20.9822 11.7715 20.9822L12.0032 20.9825L12.2283 20.9822C12.2341 20.9822 12.2402 20.9821 12.246 20.982C12.4975 20.9726 12.7367 20.8687 12.9154 20.6902C13.1028 20.503 13.2083 20.249 13.2087 19.9841C13.2087 19.9631 13.2094 19.9421 13.2107 19.9212L13.2205 19.7702Z" fill="#0A0A0A"/>
<path fill-rule="evenodd" clip-rule="evenodd" d="M12 10C10.8954 10 10 10.8954 10 12C10 13.1046 10.8954 14 12 14C13.1046 14 14 13.1046 14 12C14 10.8954 13.1046 10 12 10ZM8 12C8 9.79086 9.79086 8 12 8C14.2091 8 16 9.79086 16 12C16 14.2091 14.2091 16 12 16C9.79086 16 8 14.2091 8 12Z" fill="#0A0A0A"/>
</svg>
