<svg width="51" height="18" viewBox="0 0 51 18" fill="none" xmlns="http://www.w3.org/2000/svg">
<path d="M1.428 12.06C1.124 12.06 0.908 11.9 0.78 11.58C0.66 11.26 0.6 10.748 0.6 10.044C0.6 9.004 0.748 8.016 1.044 7.08C1.116 6.848 1.232 6.68 1.392 6.576C1.56 6.464 1.792 6.408 2.088 6.408C2.248 6.408 2.36 6.428 2.424 6.468C2.488 6.508 2.52 6.584 2.52 6.696C2.52 6.824 2.46 7.112 2.34 7.56C2.26 7.88 2.196 8.16 2.148 8.4C2.1 8.632 2.06 8.924 2.028 9.276C2.244 8.652 2.5 8.124 2.796 7.692C3.1 7.26 3.408 6.94 3.72 6.732C4.04 6.516 4.34 6.408 4.62 6.408C4.9 6.408 5.096 6.472 5.208 6.6C5.328 6.728 5.388 6.924 5.388 7.188C5.388 7.444 5.312 7.908 5.16 8.58C5.096 8.868 5.052 9.084 5.028 9.228C5.428 8.244 5.872 7.528 6.36 7.08C6.848 6.632 7.304 6.408 7.728 6.408C8.248 6.408 8.508 6.668 8.508 7.188C8.508 7.5 8.42 8.064 8.244 8.88C8.092 9.576 8.016 10.036 8.016 10.26C8.016 10.58 8.132 10.74 8.364 10.74C8.524 10.74 8.712 10.644 8.928 10.452C9.152 10.252 9.448 9.932 9.816 9.492C9.912 9.38 10.02 9.324 10.14 9.324C10.244 9.324 10.324 9.372 10.38 9.468C10.444 9.564 10.476 9.696 10.476 9.864C10.476 10.184 10.4 10.432 10.248 10.608C9.904 11.032 9.532 11.38 9.132 11.652C8.74 11.924 8.292 12.06 7.788 12.06C7.38 12.06 7.072 11.944 6.864 11.712C6.656 11.472 6.552 11.128 6.552 10.68C6.552 10.456 6.608 10.056 6.72 9.48C6.824 8.976 6.876 8.628 6.876 8.436C6.876 8.308 6.832 8.244 6.744 8.244C6.64 8.244 6.492 8.38 6.3 8.652C6.108 8.916 5.916 9.268 5.724 9.708C5.532 10.148 5.376 10.612 5.256 11.1C5.168 11.484 5.064 11.74 4.944 11.868C4.832 11.996 4.648 12.06 4.392 12.06C4.128 12.06 3.928 11.936 3.792 11.688C3.664 11.432 3.6 11.124 3.6 10.764C3.6 10.46 3.64 10.02 3.72 9.444C3.784 8.932 3.816 8.596 3.816 8.436C3.816 8.308 3.772 8.244 3.684 8.244C3.564 8.244 3.412 8.388 3.228 8.676C3.044 8.964 2.864 9.332 2.688 9.78C2.52 10.228 2.384 10.668 2.28 11.1C2.192 11.476 2.088 11.732 1.968 11.868C1.856 11.996 1.676 12.06 1.428 12.06ZM13.7057 6.408C13.8897 6.408 14.0177 6.432 14.0897 6.48C14.1617 6.528 14.1977 6.608 14.1977 6.72C14.1977 6.912 14.0937 7.596 13.8857 8.772C13.7017 9.9 13.5937 10.568 13.5617 10.776C13.2657 12.832 12.8577 14.46 12.3377 15.66C11.8177 16.86 11.1257 17.46 10.2617 17.46C9.85369 17.46 9.52169 17.332 9.26569 17.076C9.00969 16.828 8.88169 16.5 8.88169 16.092C8.88169 15.716 8.96569 15.332 9.13369 14.94C9.30969 14.548 9.62969 14.096 10.0937 13.584C10.5657 13.08 11.2297 12.5 12.0857 11.844L12.1217 11.568C12.1777 11.272 12.2417 10.848 12.3137 10.296C12.1537 10.872 11.9297 11.312 11.6417 11.616C11.3537 11.912 11.0497 12.06 10.7297 12.06C10.3697 12.06 10.0737 11.896 9.84169 11.568C9.61769 11.232 9.50569 10.816 9.50569 10.32C9.50569 9.72 9.54569 9.172 9.62569 8.676C9.70569 8.172 9.83769 7.64 10.0217 7.08C10.1017 6.84 10.2137 6.668 10.3577 6.564C10.5017 6.46 10.7297 6.408 11.0417 6.408C11.2177 6.408 11.3377 6.436 11.4017 6.492C11.4737 6.548 11.5097 6.632 11.5097 6.744C11.5097 6.808 11.4657 7.024 11.3777 7.392C11.2977 7.688 11.2337 7.956 11.1857 8.196C11.1217 8.524 11.0657 8.84 11.0177 9.144C10.9697 9.44 10.9457 9.684 10.9457 9.876C10.9457 10.18 11.0297 10.332 11.1977 10.332C11.3177 10.332 11.4657 10.212 11.6417 9.972C11.8257 9.732 12.0177 9.368 12.2177 8.88C12.4257 8.392 12.6257 7.792 12.8177 7.08C12.8817 6.84 12.9777 6.668 13.1057 6.564C13.2417 6.46 13.4417 6.408 13.7057 6.408ZM10.3937 16.296C10.5937 16.296 10.8177 16.064 11.0657 15.6C11.3137 15.136 11.5617 14.364 11.8097 13.284C11.1937 13.804 10.7457 14.276 10.4657 14.7C10.1937 15.132 10.0577 15.508 10.0577 15.828C10.0577 15.964 10.0817 16.076 10.1297 16.164C10.1857 16.252 10.2737 16.296 10.3937 16.296ZM17.0697 12.324C16.6537 12.324 16.3337 12.228 16.1097 12.036C15.8937 11.844 15.7857 11.628 15.7857 11.388C15.7857 11.18 15.8617 11 16.0137 10.848C16.1657 10.696 16.3897 10.62 16.6857 10.62C16.7897 10.62 16.9097 10.632 17.0457 10.656C17.1897 10.672 17.2977 10.684 17.3697 10.692C17.3617 10.484 17.3137 10.288 17.2257 10.104C17.1457 9.92 17.0417 9.744 16.9137 9.576C16.7857 9.4 16.6657 9.248 16.5537 9.12C16.3057 9.592 16.0577 9.984 15.8097 10.296C15.5697 10.608 15.3057 10.904 15.0177 11.184C14.8737 11.328 14.7217 11.4 14.5617 11.4C14.4337 11.4 14.3297 11.356 14.2497 11.268C14.1697 11.172 14.1297 11.056 14.1297 10.92C14.1297 10.76 14.1857 10.612 14.2977 10.476L14.4537 10.284C14.8937 9.74 15.2257 9.292 15.4497 8.94C15.5857 8.708 15.7457 8.4 15.9297 8.016C16.1137 7.624 16.2937 7.22 16.4697 6.804C16.6217 6.452 16.9377 6.276 17.4177 6.276C17.6417 6.276 17.7977 6.296 17.8857 6.336C17.9737 6.376 18.0177 6.44 18.0177 6.528C18.0177 6.576 18.0017 6.652 17.9697 6.756C17.9377 6.86 17.8937 6.964 17.8377 7.068C17.6937 7.356 17.6217 7.6 17.6217 7.8C17.6217 7.92 17.6617 8.052 17.7417 8.196C17.8297 8.34 17.9617 8.52 18.1377 8.736C18.3937 9.072 18.5857 9.36 18.7137 9.6C18.8497 9.832 18.9177 10.088 18.9177 10.368C18.9177 10.448 18.9097 10.56 18.8937 10.704C19.2857 10.552 19.7457 10.148 20.2737 9.492C20.3697 9.38 20.4777 9.324 20.5977 9.324C20.7017 9.324 20.7817 9.372 20.8377 9.468C20.9017 9.564 20.9337 9.696 20.9337 9.864C20.9337 10.168 20.8577 10.416 20.7057 10.608C20.3057 11.104 19.9217 11.444 19.5537 11.628C19.1937 11.804 18.7457 11.9 18.2097 11.916C17.8897 12.188 17.5097 12.324 17.0697 12.324ZM25.3108 9.324C25.4148 9.324 25.4948 9.372 25.5508 9.468C25.6148 9.564 25.6468 9.696 25.6468 9.864C25.6468 10.184 25.5708 10.432 25.4188 10.608C25.1228 10.968 24.7028 11.3 24.1588 11.604C23.6228 11.908 23.0468 12.06 22.4308 12.06C21.5908 12.06 20.9388 11.832 20.4748 11.376C20.0108 10.92 19.7788 10.296 19.7788 9.504C19.7788 8.952 19.8948 8.44 20.1268 7.968C20.3588 7.488 20.6788 7.108 21.0868 6.828C21.5028 6.548 21.9708 6.408 22.4908 6.408C22.9548 6.408 23.3268 6.548 23.6068 6.828C23.8868 7.1 24.0268 7.472 24.0268 7.944C24.0268 8.496 23.8268 8.972 23.4268 9.372C23.0348 9.764 22.3668 10.076 21.4228 10.308C21.6228 10.676 22.0028 10.86 22.5628 10.86C22.9228 10.86 23.3308 10.736 23.7868 10.488C24.2508 10.232 24.6508 9.9 24.9868 9.492C25.0828 9.38 25.1908 9.324 25.3108 9.324ZM22.2868 7.584C21.9908 7.584 21.7388 7.756 21.5308 8.1C21.3308 8.444 21.2308 8.86 21.2308 9.348V9.372C21.7028 9.26 22.0748 9.092 22.3468 8.868C22.6188 8.644 22.7548 8.384 22.7548 8.088C22.7548 7.936 22.7108 7.816 22.6228 7.728C22.5428 7.632 22.4308 7.584 22.2868 7.584ZM26.9618 12.06C26.1778 12.06 25.5658 11.84 25.1258 11.4C24.6938 10.952 24.4778 10.364 24.4778 9.636C24.4778 8.988 24.6058 8.42 24.8618 7.932C25.1178 7.444 25.4498 7.068 25.8577 6.804C26.2658 6.54 26.6938 6.408 27.1418 6.408C27.5818 6.408 27.9218 6.54 28.1618 6.804C28.4098 7.06 28.5338 7.392 28.5338 7.8C28.5338 8.136 28.4578 8.42 28.3058 8.652C28.1618 8.884 27.9698 9 27.7298 9C27.5778 9 27.4538 8.964 27.3578 8.892C27.2698 8.82 27.2258 8.72 27.2258 8.592C27.2258 8.536 27.2338 8.472 27.2498 8.4C27.2658 8.328 27.2778 8.276 27.2858 8.244C27.3258 8.124 27.3458 8.012 27.3458 7.908C27.3458 7.804 27.3178 7.724 27.2617 7.668C27.2138 7.612 27.1418 7.584 27.0458 7.584C26.8618 7.584 26.6898 7.668 26.5298 7.836C26.3698 7.996 26.2418 8.216 26.1458 8.496C26.0498 8.776 26.0018 9.084 26.0018 9.42C26.0018 10.348 26.4058 10.812 27.2138 10.812C27.5418 10.812 27.8938 10.704 28.2698 10.488C28.6538 10.264 29.0298 9.932 29.3978 9.492C29.4938 9.38 29.6018 9.324 29.7218 9.324C29.8258 9.324 29.9058 9.372 29.9618 9.468C30.0258 9.564 30.0578 9.696 30.0578 9.864C30.0578 10.168 29.9818 10.416 29.8298 10.608C29.4538 11.072 29.0018 11.432 28.4738 11.688C27.9538 11.936 27.4498 12.06 26.9618 12.06ZM35.2077 8.316C35.3117 8.316 35.3917 8.368 35.4477 8.472C35.5037 8.576 35.5317 8.708 35.5317 8.868C35.5317 9.252 35.4157 9.48 35.1837 9.552C34.7037 9.72 34.1757 9.816 33.5997 9.84C33.4477 10.512 33.1477 11.052 32.6997 11.46C32.2517 11.86 31.7437 12.06 31.1757 12.06C30.6957 12.06 30.2837 11.944 29.9397 11.712C29.6037 11.48 29.3477 11.172 29.1717 10.788C28.9957 10.404 28.9077 9.988 28.9077 9.54C28.9077 8.932 29.0237 8.392 29.2557 7.92C29.4877 7.44 29.8077 7.068 30.2157 6.804C30.6237 6.532 31.0757 6.396 31.5717 6.396C32.1797 6.396 32.6677 6.608 33.0357 7.032C33.4117 7.448 33.6317 7.964 33.6957 8.58C34.0717 8.556 34.5197 8.476 35.0397 8.34C35.1037 8.324 35.1597 8.316 35.2077 8.316ZM31.2717 10.788C31.5277 10.788 31.7477 10.684 31.9317 10.476C32.1237 10.268 32.2517 9.968 32.3157 9.576C32.0677 9.408 31.8757 9.188 31.7397 8.916C31.6117 8.644 31.5477 8.356 31.5477 8.052C31.5477 7.924 31.5597 7.796 31.5837 7.668H31.5237C31.2037 7.668 30.9357 7.824 30.7197 8.136C30.5117 8.44 30.4077 8.872 30.4077 9.432C30.4077 9.872 30.4917 10.208 30.6597 10.44C30.8357 10.672 31.0397 10.788 31.2717 10.788ZM35.3538 12.06C35.0498 12.06 34.8338 11.9 34.7058 11.58C34.5858 11.26 34.5258 10.748 34.5258 10.044C34.5258 9.004 34.6738 8.016 34.9698 7.08C35.0418 6.848 35.1578 6.68 35.3178 6.576C35.4858 6.464 35.7178 6.408 36.0138 6.408C36.1738 6.408 36.2858 6.428 36.3498 6.468C36.4138 6.508 36.4458 6.584 36.4458 6.696C36.4458 6.824 36.3858 7.112 36.2658 7.56C36.1858 7.88 36.1218 8.16 36.0738 8.4C36.0258 8.64 35.9858 8.936 35.9538 9.288C36.2178 8.6 36.5138 8.04 36.8418 7.608C37.1698 7.176 37.4898 6.868 37.8018 6.684C38.1218 6.5 38.4138 6.408 38.6778 6.408C39.1978 6.408 39.4578 6.668 39.4578 7.188C39.4578 7.5 39.3698 8.064 39.1938 8.88C39.0418 9.576 38.9658 10.036 38.9658 10.26C38.9658 10.58 39.0818 10.74 39.3138 10.74C39.4738 10.74 39.6618 10.644 39.8778 10.452C40.1018 10.252 40.3978 9.932 40.7658 9.492C40.8618 9.38 40.9698 9.324 41.0898 9.324C41.1938 9.324 41.2738 9.372 41.3298 9.468C41.3938 9.564 41.4258 9.696 41.4258 9.864C41.4258 10.184 41.3498 10.432 41.1978 10.608C40.8538 11.032 40.4818 11.38 40.0818 11.652C39.6898 11.924 39.2418 12.06 38.7378 12.06C38.3298 12.06 38.0218 11.944 37.8138 11.712C37.6058 11.472 37.5018 11.128 37.5018 10.68C37.5018 10.456 37.5578 10.056 37.6698 9.48C37.7738 8.976 37.8258 8.628 37.8258 8.436C37.8258 8.308 37.7818 8.244 37.6938 8.244C37.5898 8.244 37.4418 8.38 37.2498 8.652C37.0658 8.916 36.8738 9.268 36.6738 9.708C36.4818 10.148 36.3258 10.612 36.2058 11.1C36.1178 11.476 36.0138 11.732 35.8938 11.868C35.7818 11.996 35.6018 12.06 35.3538 12.06ZM47.2709 9.324C47.3749 9.324 47.4549 9.372 47.5109 9.468C47.5749 9.564 47.6069 9.696 47.6069 9.864C47.6069 10.184 47.5309 10.432 47.3789 10.608C47.0509 11.008 46.6909 11.352 46.2989 11.64C45.9069 11.92 45.5189 12.06 45.1349 12.06C44.5269 12.06 44.0629 11.704 43.7429 10.992C43.4069 11.416 43.1109 11.7 42.8549 11.844C42.6069 11.988 42.3149 12.06 41.9789 12.06C41.4909 12.06 41.0869 11.88 40.7669 11.52C40.4549 11.152 40.2989 10.676 40.2989 10.092C40.2989 9.452 40.4349 8.86 40.7069 8.316C40.9789 7.764 41.3509 7.316 41.8229 6.972C42.3029 6.62 42.8389 6.412 43.4309 6.348C43.5829 4.796 43.8709 3.472 44.2949 2.376C44.7269 1.272 45.2909 0.719999 45.9869 0.719999C46.3309 0.719999 46.6149 0.875999 46.8389 1.188C47.0709 1.5 47.1869 1.972 47.1869 2.604C47.1869 3.5 46.9669 4.548 46.5269 5.748C46.0869 6.948 45.4989 8.18 44.7629 9.444C44.7949 9.908 44.8629 10.24 44.9669 10.44C45.0789 10.64 45.2189 10.74 45.3869 10.74C45.6029 10.74 45.8229 10.644 46.0469 10.452C46.2709 10.26 46.5709 9.94 46.9469 9.492C47.0429 9.38 47.1509 9.324 47.2709 9.324ZM45.8549 1.896C45.7029 1.896 45.5509 2.168 45.3989 2.712C45.2469 3.248 45.1149 3.952 45.0029 4.824C44.8989 5.696 44.8229 6.608 44.7749 7.56C45.6709 5.608 46.1189 4.04 46.1189 2.856C46.1189 2.552 46.0909 2.316 46.0349 2.148C45.9869 1.98 45.9269 1.896 45.8549 1.896ZM42.3989 10.848C42.5509 10.848 42.7029 10.788 42.8549 10.668C43.0069 10.54 43.1989 10.308 43.4309 9.972C43.3509 9.54 43.3109 9.056 43.3109 8.52C43.3109 8.328 43.3189 8.016 43.3349 7.584C42.8949 7.72 42.5269 8.016 42.2309 8.472C41.9429 8.92 41.7989 9.42 41.7989 9.972C41.7989 10.556 41.9989 10.848 42.3989 10.848ZM48.8627 12.324C48.4467 12.324 48.1267 12.228 47.9027 12.036C47.6867 11.844 47.5787 11.628 47.5787 11.388C47.5787 11.18 47.6547 11 47.8067 10.848C47.9587 10.696 48.1827 10.62 48.4787 10.62C48.5827 10.62 48.7027 10.632 48.8387 10.656C48.9827 10.672 49.0907 10.684 49.1627 10.692C49.1547 10.484 49.1067 10.288 49.0187 10.104C48.9387 9.92 48.8347 9.744 48.7067 9.576C48.5787 9.4 48.4587 9.248 48.3467 9.12C48.0987 9.592 47.8507 9.984 47.6027 10.296C47.3627 10.608 47.0987 10.904 46.8107 11.184C46.6667 11.328 46.5147 11.4 46.3547 11.4C46.2267 11.4 46.1227 11.356 46.0427 11.268C45.9627 11.172 45.9227 11.056 45.9227 10.92C45.9227 10.76 45.9787 10.612 46.0907 10.476L46.2467 10.284C46.6867 9.74 47.0187 9.292 47.2427 8.94C47.3867 8.708 47.5307 8.432 47.6747 8.112C47.8267 7.792 48.0227 7.356 48.2627 6.804C48.4147 6.452 48.7307 6.276 49.2107 6.276C49.4347 6.276 49.5907 6.296 49.6787 6.336C49.7667 6.376 49.8107 6.44 49.8107 6.528C49.8107 6.576 49.7947 6.652 49.7627 6.756C49.7307 6.86 49.6867 6.964 49.6307 7.068C49.4867 7.356 49.4147 7.6 49.4147 7.8C49.4147 7.92 49.4547 8.052 49.5347 8.196C49.6227 8.34 49.7547 8.52 49.9307 8.736C50.1867 9.072 50.3787 9.36 50.5067 9.6C50.6427 9.832 50.7107 10.088 50.7107 10.368C50.7107 10.704 50.6307 11.024 50.4707 11.328C50.3187 11.624 50.1027 11.864 49.8227 12.048C49.5427 12.232 49.2227 12.324 48.8627 12.324Z" fill="#0A0A0A"/>
</svg>
