<svg width="168" height="56" viewBox="0 0 168 56" fill="none" xmlns="http://www.w3.org/2000/svg">
<path d="M2.76989 37.9355C1.75293 37.9355 1.03035 37.4002 0.602151 36.3297C0.200717 35.2593 0 33.5465 0 31.1914C0 27.7123 0.495102 24.4072 1.4853 21.276C1.72616 20.4999 2.11422 19.9379 2.64946 19.59C3.21147 19.2153 3.98757 19.028 4.97778 19.028C5.51302 19.028 5.88769 19.0949 6.10179 19.2287C6.31589 19.3625 6.42294 19.6167 6.42294 19.9914C6.42294 20.4196 6.22222 21.383 5.82079 22.8817C5.55317 23.9522 5.33907 24.8889 5.17849 25.6918C5.01792 26.4679 4.88411 27.4447 4.77706 28.6222C5.49964 26.5348 6.35603 24.7685 7.34624 23.3233C8.3632 21.8781 9.39355 20.8076 10.4373 20.1118C11.5078 19.3892 12.5113 19.028 13.448 19.028C14.3847 19.028 15.0404 19.2421 15.4151 19.6702C15.8165 20.0984 16.0172 20.7541 16.0172 21.6373C16.0172 22.4937 15.763 24.0459 15.2545 26.2939C15.0404 27.2573 14.8932 27.9799 14.8129 28.4616C16.151 25.1699 17.6363 22.7747 19.2688 21.276C20.9013 19.7773 22.4268 19.028 23.8452 19.028C25.5847 19.028 26.4545 19.8977 26.4545 21.6373C26.4545 22.681 26.1601 24.5677 25.5713 27.2975C25.0628 29.6258 24.8086 31.1646 24.8086 31.914C24.8086 32.9845 25.1967 33.5197 25.9728 33.5197C26.508 33.5197 27.1369 33.1986 27.8595 32.5563C28.6088 31.8872 29.599 30.8167 30.8301 29.3448C31.1513 28.9701 31.5125 28.7828 31.914 28.7828C32.2619 28.7828 32.5295 28.9434 32.7168 29.2645C32.9309 29.5857 33.038 30.0272 33.038 30.5892C33.038 31.6597 32.7837 32.4894 32.2753 33.0781C31.1245 34.4965 29.88 35.6607 28.5419 36.5706C27.2306 37.4805 25.7319 37.9355 24.0459 37.9355C22.681 37.9355 21.6507 37.5474 20.9548 36.7713C20.259 35.9685 19.9111 34.8177 19.9111 33.319C19.9111 32.5697 20.0984 31.2315 20.4731 29.3047C20.821 27.6186 20.995 26.4545 20.995 25.8122C20.995 25.384 20.8478 25.1699 20.5534 25.1699C20.2055 25.1699 19.7104 25.6248 19.0681 26.5348C18.4258 27.4179 17.7835 28.5955 17.1412 30.0674C16.4989 31.5393 15.9771 33.0915 15.5756 34.724C15.2812 36.0086 14.9333 36.865 14.5319 37.2932C14.1572 37.7214 13.5417 37.9355 12.6853 37.9355C11.8021 37.9355 11.1331 37.5207 10.6781 36.691C10.2499 35.8346 10.0358 34.8043 10.0358 33.6C10.0358 32.583 10.1697 31.1111 10.4373 29.1842C10.6514 27.4714 10.7584 26.3474 10.7584 25.8122C10.7584 25.384 10.6112 25.1699 10.3168 25.1699C9.91541 25.1699 9.40693 25.6516 8.7914 26.6151C8.17587 27.5785 7.57371 28.8096 6.98495 30.3082C6.42294 31.8069 5.96798 33.2789 5.62007 34.724C5.32569 35.9818 4.97778 36.8382 4.57634 37.2932C4.20167 37.7214 3.59952 37.9355 2.76989 37.9355Z" fill="#0A0A0A"/>
<path d="M43.8422 19.028C44.4577 19.028 44.8859 19.1082 45.1268 19.2688C45.3676 19.4294 45.4881 19.697 45.4881 20.0717C45.4881 20.714 45.1402 23.0021 44.4443 26.9362C43.8288 30.7097 43.4675 32.9443 43.3605 33.6401C42.3703 40.518 41.0054 45.9642 39.2659 49.9785C37.5263 53.9928 35.2114 56 32.3211 56C30.9562 56 29.8455 55.5718 28.9892 54.7154C28.1328 53.8858 27.7046 52.7885 27.7046 51.4237C27.7046 50.1658 27.9856 48.8812 28.5476 47.5699C29.1363 46.2585 30.2068 44.7465 31.759 43.0337C33.338 41.3477 35.5593 39.4074 38.4228 37.2129L38.5433 36.2896C38.7306 35.2994 38.9447 33.881 39.1856 32.0344C38.6503 33.9613 37.901 35.4332 36.9375 36.4502C35.9741 37.4404 34.9571 37.9355 33.8866 37.9355C32.6823 37.9355 31.6921 37.3869 30.916 36.2896C30.1667 35.1656 29.792 33.774 29.792 32.1147C29.792 30.1075 29.9258 28.2743 30.1935 26.6151C30.4611 24.929 30.9027 23.1493 31.5182 21.276C31.7858 20.4731 32.1605 19.8977 32.6422 19.5498C33.1239 19.2019 33.8866 19.028 34.9304 19.028C35.5191 19.028 35.9206 19.1216 36.1347 19.309C36.3755 19.4963 36.496 19.7773 36.496 20.152C36.496 20.3661 36.3488 21.0886 36.0544 22.3197C35.7868 23.3099 35.5727 24.2065 35.4121 25.0093C35.198 26.1066 35.0107 27.1637 34.8501 28.1806C34.6895 29.1708 34.6092 29.9871 34.6092 30.6294C34.6092 31.6464 34.8902 32.1548 35.4522 32.1548C35.8537 32.1548 36.3488 31.7534 36.9375 30.9505C37.5531 30.1477 38.1954 28.93 38.8644 27.2975C39.5602 25.665 40.2293 23.6578 40.8716 21.276C41.0857 20.4731 41.4068 19.8977 41.835 19.5498C42.29 19.2019 42.959 19.028 43.8422 19.028ZM32.7626 52.1061C33.4317 52.1061 34.181 51.33 35.0107 49.7778C35.8403 48.2256 36.6699 45.643 37.4995 42.0301C35.4389 43.7697 33.9402 45.3486 33.0035 46.767C32.0936 48.2122 31.6386 49.47 31.6386 50.5405C31.6386 50.9955 31.7189 51.3701 31.8795 51.6645C32.0668 51.9589 32.3612 52.1061 32.7626 52.1061Z" fill="#0A0A0A"/>
<path d="M55.0958 38.8186C53.7042 38.8186 52.6337 38.4975 51.8844 37.8552C51.1618 37.2129 50.8005 36.4903 50.8005 35.6875C50.8005 34.9916 51.0547 34.3895 51.5632 33.881C52.0717 33.3725 52.821 33.1183 53.8112 33.1183C54.1591 33.1183 54.5606 33.1584 55.0155 33.2387C55.4973 33.2922 55.8585 33.3324 56.0994 33.3591C56.0726 32.6633 55.9121 32.0076 55.6177 31.3921C55.3501 30.7766 55.0022 30.1878 54.574 29.6258C54.1458 29.037 53.7443 28.5286 53.3697 28.1004C52.54 29.6793 51.7104 30.9907 50.8808 32.0344C50.0779 33.0781 49.1948 34.0683 48.2313 35.005C47.7496 35.4867 47.2411 35.7276 46.7059 35.7276C46.2777 35.7276 45.9298 35.5804 45.6621 35.286C45.3945 34.9649 45.2607 34.5768 45.2607 34.1219C45.2607 33.5866 45.448 33.0915 45.8227 32.6366L46.3446 31.9943C47.8165 30.1744 48.9271 28.6757 49.6765 27.4982C50.1314 26.7221 50.6667 25.6918 51.2822 24.4072C51.8977 23.0958 52.4999 21.7443 53.0887 20.3527C53.5971 19.1751 54.6542 18.5864 56.26 18.5864C57.0093 18.5864 57.5312 18.6533 57.8256 18.7871C58.12 18.9209 58.2672 19.135 58.2672 19.4294C58.2672 19.59 58.2136 19.8442 58.1066 20.1921C57.9995 20.54 57.8523 20.8879 57.665 21.2358C57.1833 22.1993 56.9424 23.0155 56.9424 23.6846C56.9424 24.086 57.0762 24.5276 57.3439 25.0093C57.6382 25.491 58.0798 26.0932 58.6686 26.8158C59.525 27.9398 60.1673 28.9032 60.5955 29.7061C61.0504 30.4822 61.2779 31.3386 61.2779 32.2753C61.2779 32.5429 61.2511 32.9176 61.1976 33.3993C62.509 32.8908 64.0478 31.5393 65.8141 29.3448C66.1352 28.9701 66.4965 28.7828 66.898 28.7828C67.2459 28.7828 67.5135 28.9434 67.7008 29.2645C67.9149 29.5857 68.022 30.0272 68.022 30.5892C68.022 31.6062 67.7677 32.4358 67.2593 33.0781C65.9212 34.7374 64.6366 35.8748 63.4055 36.4903C62.2012 37.0791 60.7025 37.4002 58.9094 37.4538C57.839 38.3637 56.5677 38.8186 55.0958 38.8186Z" fill="#0A0A0A"/>
<path d="M82.6646 28.7828C83.0125 28.7828 83.2801 28.9434 83.4675 29.2645C83.6816 29.5857 83.7886 30.0272 83.7886 30.5892C83.7886 31.6597 83.5344 32.4894 83.0259 33.0781C82.0357 34.2824 80.6307 35.3931 78.8108 36.41C77.0178 37.427 75.0909 37.9355 73.0302 37.9355C70.2201 37.9355 68.039 37.1728 66.4868 35.6473C64.9346 34.1219 64.1585 32.0344 64.1585 29.3849C64.1585 27.5383 64.5465 25.8256 65.3227 24.2466C66.0988 22.6409 67.1693 21.3697 68.5341 20.433C69.9258 19.4963 71.4914 19.028 73.2309 19.028C74.7831 19.028 76.0276 19.4963 76.9642 20.433C77.9009 21.3429 78.3693 22.5873 78.3693 24.1663C78.3693 26.0129 77.7002 27.6053 76.3621 28.9434C75.0507 30.2547 72.8161 31.2984 69.6581 32.0746C70.3272 33.3056 71.5984 33.9211 73.4718 33.9211C74.6761 33.9211 76.0409 33.5063 77.5664 32.6767C79.1186 31.8203 80.4567 30.7097 81.5807 29.3448C81.9019 28.9701 82.2632 28.7828 82.6646 28.7828ZM72.5485 22.962C71.5583 22.962 70.7152 23.5374 70.0194 24.6882C69.3504 25.8389 69.0159 27.2306 69.0159 28.8631V28.9434C70.5948 28.5687 71.8393 28.0067 72.7492 27.2573C73.6591 26.508 74.1141 25.6382 74.1141 24.648C74.1141 24.1395 73.9669 23.7381 73.6725 23.4437C73.4049 23.1226 73.0302 22.962 72.5485 22.962Z" fill="#0A0A0A"/>
<path d="M88.1874 37.9355C85.5647 37.9355 83.5174 37.1995 82.0455 35.7276C80.6003 34.2289 79.8778 32.2619 79.8778 29.8265C79.8778 27.6588 80.306 25.7587 81.1623 24.1262C82.0187 22.4937 83.1294 21.2358 84.4942 20.3527C85.8591 19.4695 87.2909 19.028 88.7896 19.028C90.2615 19.028 91.3989 19.4695 92.2018 20.3527C93.0314 21.2091 93.4462 22.3197 93.4462 23.6846C93.4462 24.8086 93.192 25.7587 92.6835 26.5348C92.2018 27.3109 91.5595 27.6989 90.7566 27.6989C90.2481 27.6989 89.8333 27.5785 89.5122 27.3376C89.2178 27.0968 89.0706 26.7622 89.0706 26.334C89.0706 26.1467 89.0974 25.9326 89.1509 25.6918C89.2044 25.4509 89.2446 25.2769 89.2713 25.1699C89.4051 24.7685 89.472 24.3938 89.472 24.0459C89.472 23.698 89.3784 23.4303 89.191 23.243C89.0305 23.0557 88.7896 22.962 88.4684 22.962C87.8529 22.962 87.2775 23.243 86.7423 23.805C86.207 24.3403 85.7788 25.0762 85.4577 26.0129C85.1365 26.9496 84.976 27.9799 84.976 29.1039C84.976 32.2084 86.3275 33.7606 89.0304 33.7606C90.1277 33.7606 91.3052 33.3993 92.5631 32.6767C93.8477 31.9274 95.1055 30.8167 96.3365 29.3448C96.6577 28.9701 97.019 28.7828 97.4204 28.7828C97.7683 28.7828 98.0359 28.9434 98.2233 29.2645C98.4374 29.5857 98.5444 30.0272 98.5444 30.5892C98.5444 31.6062 98.2902 32.4358 97.7817 33.0781C96.5239 34.6303 95.0118 35.8346 93.2455 36.691C91.506 37.5207 89.8199 37.9355 88.1874 37.9355Z" fill="#0A0A0A"/>
<path d="M115.773 25.4108C116.12 25.4108 116.388 25.5847 116.575 25.9326C116.763 26.2805 116.856 26.7221 116.856 27.2573C116.856 28.5419 116.468 29.3047 115.692 29.5455C114.087 30.1075 112.32 30.4287 110.393 30.509C109.885 32.757 108.881 34.5634 107.383 35.9283C105.884 37.2664 104.184 37.9355 102.284 37.9355C100.679 37.9355 99.3004 37.5474 98.1496 36.7713C97.0256 35.9952 96.1692 34.9649 95.5804 33.6803C94.9916 32.3957 94.6973 31.0041 94.6973 29.5054C94.6973 27.4714 95.0853 25.665 95.8614 24.086C96.6375 22.4803 97.708 21.2358 99.0729 20.3527C100.438 19.4428 101.95 18.9878 103.609 18.9878C105.643 18.9878 107.276 19.697 108.507 21.1154C109.764 22.507 110.5 24.2332 110.714 26.2939C111.972 26.2136 113.471 25.946 115.211 25.491C115.425 25.4375 115.612 25.4108 115.773 25.4108ZM102.605 33.6803C103.462 33.6803 104.198 33.3324 104.813 32.6366C105.456 31.9407 105.884 30.9372 106.098 29.6258C105.268 29.0638 104.626 28.3278 104.171 27.4179C103.743 26.508 103.529 25.5446 103.529 24.5276C103.529 24.0994 103.569 23.6712 103.649 23.243H103.449C102.378 23.243 101.481 23.7649 100.759 24.8086C100.063 25.8256 99.7152 27.2707 99.7152 29.1441C99.7152 30.616 99.9962 31.74 100.558 32.5161C101.147 33.2922 101.829 33.6803 102.605 33.6803Z" fill="#0A0A0A"/>
<path d="M116.261 37.9355C115.244 37.9355 114.522 37.4002 114.093 36.3297C113.692 35.2593 113.491 33.5465 113.491 31.1914C113.491 27.7123 113.986 24.4072 114.977 21.276C115.217 20.4999 115.605 19.9379 116.141 19.59C116.703 19.2153 117.479 19.028 118.469 19.028C119.004 19.028 119.379 19.0949 119.593 19.2287C119.807 19.3625 119.914 19.6167 119.914 19.9914C119.914 20.4196 119.713 21.383 119.312 22.8817C119.044 23.9522 118.83 24.8889 118.67 25.6918C118.509 26.4946 118.375 27.4848 118.268 28.6624C119.151 26.3608 120.142 24.4875 121.239 23.0423C122.336 21.5971 123.407 20.5668 124.45 19.9513C125.521 19.3357 126.498 19.028 127.381 19.028C129.12 19.028 129.99 19.8977 129.99 21.6373C129.99 22.681 129.696 24.5677 129.107 27.2975C128.599 29.6258 128.344 31.1646 128.344 31.914C128.344 32.9845 128.732 33.5197 129.508 33.5197C130.044 33.5197 130.673 33.1986 131.395 32.5563C132.145 31.8872 133.135 30.8167 134.366 29.3448C134.687 28.9701 135.048 28.7828 135.45 28.7828C135.798 28.7828 136.065 28.9434 136.253 29.2645C136.467 29.5857 136.574 30.0272 136.574 30.5892C136.574 31.6597 136.319 32.4894 135.811 33.0781C134.66 34.4965 133.416 35.6607 132.078 36.5706C130.766 37.4805 129.268 37.9355 127.582 37.9355C126.217 37.9355 125.186 37.5474 124.491 36.7713C123.795 35.9685 123.447 34.8177 123.447 33.319C123.447 32.5697 123.634 31.2315 124.009 29.3047C124.357 27.6186 124.531 26.4545 124.531 25.8122C124.531 25.384 124.383 25.1699 124.089 25.1699C123.741 25.1699 123.246 25.6248 122.604 26.5348C121.988 27.4179 121.346 28.5955 120.677 30.0674C120.035 31.5393 119.513 33.0915 119.111 34.724C118.817 35.9818 118.469 36.8382 118.068 37.2932C117.693 37.7214 117.091 37.9355 116.261 37.9355Z" fill="#0A0A0A"/>
<path d="M156.127 28.7828C156.475 28.7828 156.743 28.9434 156.93 29.2645C157.144 29.5857 157.251 30.0272 157.251 30.5892C157.251 31.6597 156.997 32.4894 156.489 33.0781C155.391 34.4162 154.187 35.567 152.876 36.5305C151.564 37.4671 150.266 37.9355 148.982 37.9355C146.948 37.9355 145.396 36.7446 144.325 34.3627C143.201 35.7811 142.211 36.7312 141.354 37.2129C140.525 37.6946 139.548 37.9355 138.424 37.9355C136.792 37.9355 135.44 37.3333 134.37 36.129C133.326 34.898 132.804 33.3056 132.804 31.352C132.804 29.211 133.259 27.2306 134.169 25.4108C135.079 23.5642 136.323 22.0655 137.902 20.9147C139.508 19.7372 141.301 19.0413 143.281 18.8272C143.79 13.6354 144.753 9.20621 146.172 5.53978C147.617 1.84659 149.504 0 151.832 0C152.983 0 153.933 0.521864 154.682 1.56559C155.458 2.60932 155.846 4.18829 155.846 6.30251C155.846 9.29988 155.11 12.8057 153.638 16.8201C152.166 20.8344 150.199 24.9558 147.737 29.1842C147.844 30.7364 148.072 31.8471 148.42 32.5161C148.794 33.1852 149.263 33.5197 149.825 33.5197C150.547 33.5197 151.283 33.1986 152.033 32.5563C152.782 31.914 153.786 30.8435 155.043 29.3448C155.365 28.9701 155.726 28.7828 156.127 28.7828ZM151.39 3.93405C150.882 3.93405 150.373 4.84397 149.865 6.6638C149.356 8.45687 148.915 10.8119 148.54 13.729C148.192 16.6461 147.938 19.697 147.777 22.8817C150.775 16.3517 152.273 11.1063 152.273 7.14552C152.273 6.12856 152.18 5.33907 151.992 4.77706C151.832 4.21505 151.631 3.93405 151.39 3.93405ZM139.829 33.881C140.338 33.881 140.846 33.6803 141.354 33.2789C141.863 32.8507 142.505 32.0746 143.281 30.9505C143.014 29.5054 142.88 27.8863 142.88 26.0932C142.88 25.4509 142.907 24.4072 142.96 22.962C141.488 23.417 140.257 24.4072 139.267 25.9326C138.304 27.4313 137.822 29.1039 137.822 30.9505C137.822 32.9042 138.491 33.881 139.829 33.881Z" fill="#0A0A0A"/>
<path d="M161.452 38.8186C160.061 38.8186 158.99 38.4975 158.241 37.8552C157.518 37.2129 157.157 36.4903 157.157 35.6875C157.157 34.9916 157.411 34.3895 157.92 33.881C158.428 33.3725 159.177 33.1183 160.168 33.1183C160.516 33.1183 160.917 33.1584 161.372 33.2387C161.854 33.2922 162.215 33.3324 162.456 33.3591C162.429 32.6633 162.268 32.0076 161.974 31.3921C161.706 30.7766 161.359 30.1878 160.93 29.6258C160.502 29.037 160.101 28.5286 159.726 28.1004C158.896 29.6793 158.067 30.9907 157.237 32.0344C156.434 33.0781 155.551 34.0683 154.588 35.005C154.106 35.4867 153.598 35.7276 153.062 35.7276C152.634 35.7276 152.286 35.5804 152.019 35.286C151.751 34.9649 151.617 34.5768 151.617 34.1219C151.617 33.5866 151.804 33.0915 152.179 32.6366L152.701 31.9943C154.173 30.1744 155.284 28.6757 156.033 27.4982C156.515 26.7221 156.996 25.7988 157.478 24.7283C157.986 23.6578 158.642 22.1993 159.445 20.3527C159.954 19.1751 161.011 18.5864 162.616 18.5864C163.366 18.5864 163.888 18.6533 164.182 18.7871C164.476 18.9209 164.624 19.135 164.624 19.4294C164.624 19.59 164.57 19.8442 164.463 20.1921C164.356 20.54 164.209 20.8879 164.021 21.2358C163.54 22.1993 163.299 23.0155 163.299 23.6846C163.299 24.086 163.433 24.5276 163.7 25.0093C163.995 25.491 164.436 26.0932 165.025 26.8158C165.881 27.9398 166.524 28.9032 166.952 29.7061C167.407 30.4822 167.634 31.3386 167.634 32.2753C167.634 33.3993 167.367 34.4698 166.831 35.4867C166.323 36.4769 165.6 37.2798 164.664 37.8953C163.727 38.5109 162.657 38.8186 161.452 38.8186Z" fill="#0A0A0A"/>
</svg>
