<svg width="24" height="24" viewBox="0 0 24 24" fill="none" xmlns="http://www.w3.org/2000/svg">
<path fill-rule="evenodd" clip-rule="evenodd" d="M1.29289 1.29289C1.68342 0.902369 2.31658 0.902369 2.70711 1.29289L22.7071 21.2929C23.0976 21.6834 23.0976 22.3166 22.7071 22.7071C22.3166 23.0976 21.6834 23.0976 21.2929 22.7071L1.29289 2.70711C0.902369 2.31658 0.902369 1.68342 1.29289 1.29289Z" fill="#0A0A0A"/>
<path fill-rule="evenodd" clip-rule="evenodd" d="M1.87868 6.87868C2.44129 6.31607 3.20435 6 4 6H7C7.55228 6 8 6.44772 8 7C8 7.55228 7.55228 8 7 8H4C3.73478 8 3.48043 8.10536 3.29289 8.29289C3.10536 8.48043 3 8.73478 3 9V18C3 18.2652 3.10536 18.5196 3.29289 18.7071C3.48043 18.8946 3.73478 19 4 19H20C20.5523 19 21 19.4477 21 20C21 20.5523 20.5523 21 20 21H4C3.20435 21 2.44129 20.6839 1.87868 20.1213C1.31607 19.5587 1 18.7956 1 18V9C1 8.20435 1.31607 7.44129 1.87868 6.87868Z" fill="#0A0A0A"/>
<path fill-rule="evenodd" clip-rule="evenodd" d="M8.5 4C8.5 3.44772 8.94772 3 9.5 3H14.5C14.7968 3 15.0782 3.13182 15.2682 3.35982L17.4684 6H20C20.7956 6 21.5587 6.31607 22.1213 6.87868C22.6839 7.44129 23 8.20435 23 9V16.5C23 17.0523 22.5523 17.5 22 17.5C21.4477 17.5 21 17.0523 21 16.5V9C21 8.73478 20.8946 8.48043 20.7071 8.29289C20.5196 8.10536 20.2652 8 20 8H17C16.7032 8 16.4218 7.86818 16.2318 7.64018L14.0316 5H9.5C8.94772 5 8.5 4.55228 8.5 4Z" fill="#0A0A0A"/>
<path fill-rule="evenodd" clip-rule="evenodd" d="M10.6065 10.1928C10.986 10.5941 10.9684 11.227 10.5672 11.6065C10.3729 11.7902 10.2175 12.011 10.1101 12.2558C10.0027 12.5005 9.94541 12.7644 9.94169 13.0317C9.93797 13.299 9.98788 13.5643 10.0885 13.812C10.189 14.0597 10.3383 14.2847 10.5273 14.4737C10.7163 14.6627 10.9413 14.812 11.189 14.9125C11.4367 15.0131 11.702 15.063 11.9693 15.0593C12.2366 15.0556 12.5004 14.9983 12.7452 14.8909C12.99 14.7835 13.2108 14.628 13.3945 14.4338C13.774 14.0326 14.4069 14.015 14.8082 14.3945C15.2094 14.774 15.227 15.4069 14.8475 15.8082C14.4801 16.1966 14.0386 16.5074 13.549 16.7223C13.0594 16.9371 12.5317 17.0517 11.9971 17.0591C11.4625 17.0665 10.9319 16.9667 10.4365 16.7656C9.94113 16.5644 9.49112 16.266 9.11307 15.8879C8.73502 15.5099 8.43659 15.0599 8.23543 14.5645C8.03426 14.0691 7.93445 13.5385 7.94188 13.0039C7.94932 12.4693 8.06385 11.9416 8.27871 11.452C8.49357 10.9624 8.8044 10.5209 9.19282 10.1535C9.59405 9.774 10.227 9.7916 10.6065 10.1928Z" fill="#0A0A0A"/>
</svg>
