<svg width="24" height="24" viewBox="0 0 24 24" fill="none" xmlns="http://www.w3.org/2000/svg">
<path fill-rule="evenodd" clip-rule="evenodd" d="M16.481 2.1178C17.1972 1.40171 18.1686 0.999492 19.1815 0.999619C20.1943 0.999746 21.1656 1.40221 21.8817 2.11848C22.5978 2.83475 23 3.80615 22.9999 4.81898C22.9998 5.83181 22.5973 6.80311 21.881 7.51919L8.53416 20.8681L8.53298 20.8692C8.18524 21.2159 7.75774 21.4719 7.28798 21.6147L2.93186 22.9357C2.67253 23.0136 2.39694 23.0199 2.13434 22.9539C1.87173 22.8879 1.63188 22.752 1.44025 22.5607C1.24862 22.3694 1.11236 22.1297 1.04592 21.8672C0.979475 21.6047 0.98533 21.3291 1.06286 21.0697L1.06411 21.0655L2.38511 16.7135L2.38593 16.7109C2.52998 16.241 2.78725 15.8138 3.1351 15.4667C3.13538 15.4664 3.13565 15.4661 3.13593 15.4659L16.481 2.1178ZM17.895 3.5322C17.895 3.53225 17.8951 3.53214 17.895 3.5322L4.54918 16.881L4.54806 16.8821C4.43226 16.9976 4.34654 17.1397 4.29841 17.296C4.2983 17.2964 4.29818 17.2968 4.29806 17.2971L3.25024 20.7492L6.70601 19.7013C6.86228 19.6537 7.00452 19.5687 7.12031 19.4535C7.12007 19.4537 7.12054 19.4532 7.12031 19.4535L20.4668 6.10495C20.808 5.76388 20.9998 5.30112 20.9999 4.81873C20.9999 4.33633 20.8084 3.87367 20.4673 3.53252C20.1262 3.19137 19.6636 2.99968 19.1812 2.99962C18.6989 2.99956 18.2361 3.19124 17.895 3.5322Z" fill="#0A0A0A"/>
<path fill-rule="evenodd" clip-rule="evenodd" d="M14.2929 4.29289C14.6834 3.90237 15.3166 3.90237 15.7071 4.29289L19.7071 8.29289C20.0976 8.68342 20.0976 9.31658 19.7071 9.70711C19.3166 10.0976 18.6834 10.0976 18.2929 9.70711L14.2929 5.70711C13.9024 5.31658 13.9024 4.68342 14.2929 4.29289Z" fill="#0A0A0A"/>
</svg>
