<svg width="24" height="24" viewBox="0 0 24 24" fill="none" xmlns="http://www.w3.org/2000/svg">
<path fill-rule="evenodd" clip-rule="evenodd" d="M21.4949 6.36986C21.7588 6.36896 22.0183 6.43772 22.2472 6.56919C22.476 6.70066 22.6662 6.89019 22.7983 7.11864C22.9305 7.347 23 7.60617 23 7.87C23 7.8699 23 7.8701 23 7.87V16.066C22.9999 16.3373 22.9261 16.604 22.7867 16.8368C22.6472 17.0695 22.4472 17.2601 22.208 17.3881C21.9688 17.5162 21.6993 17.577 21.4283 17.564C21.1573 17.5511 20.8949 17.4648 20.669 17.3145L15.4453 13.832C14.9858 13.5257 14.8616 12.9048 15.168 12.4453C15.4743 11.9858 16.0952 11.8616 16.5547 12.1679L21 15.1315V8.74046L16.504 11.3637C16.0269 11.6421 15.4146 11.481 15.1363 11.004C14.8579 10.5269 15.019 9.91459 15.496 9.63627L20.744 6.57429C20.744 6.5743 20.744 6.57429 20.744 6.57429C20.9719 6.44129 21.231 6.37075 21.4949 6.36986Z" fill="#0A0A0A"/>
<path fill-rule="evenodd" clip-rule="evenodd" d="M4 7C3.44772 7 3 7.44772 3 8V16C3 16.5523 3.44772 17 4 17H14C14.5523 17 15 16.5523 15 16V8C15 7.44772 14.5523 7 14 7H4ZM1 8C1 6.34315 2.34315 5 4 5H14C15.6569 5 17 6.34315 17 8V16C17 17.6569 15.6569 19 14 19H4C2.34315 19 1 17.6569 1 16V8Z" fill="#0A0A0A"/>
</svg>
