<svg width="24" height="24" viewBox="0 0 24 24" fill="none" xmlns="http://www.w3.org/2000/svg">
<path fill-rule="evenodd" clip-rule="evenodd" d="M15.4 8.2C15.8418 7.86863 16.4686 7.95817 16.8 8.4C17.5789 9.43857 18 10.7018 18 12C18 13.2982 17.5789 14.5614 16.8 15.6C16.4686 16.0418 15.8418 16.1314 15.4 15.8C14.9582 15.4686 14.8686 14.8418 15.2 14.4C15.7193 13.7076 16 12.8655 16 12C16 11.1345 15.7193 10.2924 15.2 9.6C14.8686 9.15817 14.9582 8.53137 15.4 8.2Z" fill="black"/>
<path fill-rule="evenodd" clip-rule="evenodd" d="M18.6569 4.9289C19.0474 4.53837 19.6806 4.53837 20.0711 4.92889C20.9997 5.85748 21.7363 6.95987 22.2389 8.17314C22.7414 9.3864 23.0001 10.6868 23.0001 12C23.0001 13.3132 22.7414 14.6136 22.2389 15.8269C21.7363 17.0401 20.9997 18.1425 20.0711 19.0711C19.6806 19.4616 19.0474 19.4616 18.6569 19.0711C18.2664 18.6806 18.2664 18.0474 18.6569 17.6569C19.3998 16.914 19.9891 16.0321 20.3911 15.0615C20.7931 14.0909 21.0001 13.0506 21.0001 12C21.0001 10.9494 20.7931 9.90912 20.3911 8.93851C19.9891 7.9679 19.3998 7.08598 18.6569 6.34311C18.2664 5.95259 18.2664 5.31943 18.6569 4.9289Z" fill="black"/>
<path fill-rule="evenodd" clip-rule="evenodd" d="M9.96312 3.03261C10.2935 2.96706 10.6358 3.0008 10.947 3.12958C11.2582 3.25836 11.5243 3.47642 11.7118 3.75632C11.8992 4.03622 11.9995 4.36539 12 4.70227V19.2975C11.9995 19.6344 11.8992 19.9636 11.7118 20.2435C11.5243 20.5234 11.2582 20.7415 10.947 20.8703C10.6358 20.9991 10.2935 21.0328 9.96312 20.9673C9.63277 20.9017 9.32859 20.7392 9.09013 20.5013L5.70392 17.117C5.66662 17.0795 5.62223 17.0497 5.57331 17.0295C5.52438 17.0092 5.47191 16.9989 5.41893 16.999H3C2.46969 16.999 1.96102 16.7884 1.58592 16.4134C1.2108 16.0384 1 15.5297 1 14.9992V9.00012C1 8.46966 1.2108 7.96101 1.58592 7.58604C1.96102 7.21108 2.46969 7.00049 3 7.00049H5.41893C5.47191 7.00065 5.52438 6.99029 5.57331 6.97003C5.62223 6.94977 5.66662 6.92002 5.70392 6.88252L9.09013 3.49856C9.32859 3.26068 9.63277 3.09815 9.96312 3.03261ZM3 9.00049H5.41473C5.73167 9.0012 6.04563 8.93914 6.33848 8.81787C6.63131 8.69662 6.89722 8.51857 7.12087 8.29399L10 5.41678V18.5829L7.12087 15.7054C6.89722 15.4808 6.63131 15.3027 6.33848 15.1815C6.04563 15.0602 5.73167 14.9981 5.41473 14.9988H3V9.00049Z" fill="#0A0A0A"/>
</svg>
