<svg width="24" height="24" viewBox="0 0 24 24" fill="none" xmlns="http://www.w3.org/2000/svg">
<path fill-rule="evenodd" clip-rule="evenodd" d="M10.7553 1.27004C11.1461 1.09186 11.5705 0.999643 12 0.999643C12.4293 0.999643 12.8536 1.09179 13.2443 1.26985L21.8298 5.17782C22.1819 5.33455 22.4814 5.58974 22.6919 5.91271C22.9038 6.23763 23.0165 6.61713 23.0165 7.005C23.0165 7.39287 22.9038 7.77237 22.6919 8.09729C22.4813 8.42034 22.1818 8.67558 21.8295 8.8323L13.255 12.7298C13.2549 12.7299 13.2551 12.7298 13.255 12.7298C12.8642 12.908 12.4395 13.0004 12.01 13.0004C11.5804 13.0004 11.1558 12.9081 10.765 12.7298L2.18996 8.82208C1.83791 8.66534 1.53859 8.41019 1.32807 8.08729C1.11623 7.76237 1.00345 7.38287 1.00345 6.995C1.00345 6.60713 1.11623 6.22763 1.32807 5.90271C1.53864 5.57973 1.83806 5.32454 2.19022 5.1678L10.7553 1.27004C10.7554 1.27 10.7552 1.27009 10.7553 1.27004ZM12 2.99964C11.8568 2.99964 11.7153 3.0304 11.585 3.08982L3.00353 6.99504L3.01471 6.99996L11.5947 10.91C11.725 10.9695 11.8668 11.0004 12.01 11.0004C12.1532 11.0004 12.2947 10.9696 12.425 10.9102L21.0165 7.00497L21.0057 7.00021L12.4157 3.09015C12.2854 3.03072 12.1432 2.99964 12 2.99964Z" fill="#0A0A0A"/>
<path fill-rule="evenodd" clip-rule="evenodd" d="M21.9921 11C22.5444 10.9957 22.9956 11.4398 23 11.9921C23.003 12.3802 22.8931 12.7608 22.6836 13.0876C22.4745 13.4136 22.1752 13.6719 21.8222 13.8311C21.8214 13.8314 21.8207 13.8318 21.82 13.8321L13.2425 17.731C12.8537 17.907 12.4318 17.9981 12.005 17.9981C11.5782 17.9981 11.1563 17.907 10.7675 17.731L2.16 13.8175C1.81284 13.6569 1.51904 13.4 1.31344 13.0774C1.10784 12.7548 0.99906 12.3801 1.00001 11.9975C1.00137 11.4452 1.45019 10.9986 2.00248 11C2.55475 11.0014 3.00135 11.4502 3 12.0025L11.5925 15.909C11.5923 15.909 11.5927 15.9091 11.5925 15.909C11.722 15.9676 11.8629 15.9981 12.005 15.9981C12.1471 15.9981 12.2875 15.9678 12.417 15.9093C12.4168 15.9094 12.4171 15.9092 12.417 15.9093L21 12.0079C20.9957 11.4556 21.4398 11.0044 21.9921 11Z" fill="#0A0A0A"/>
<path fill-rule="evenodd" clip-rule="evenodd" d="M21.9921 16C22.5444 15.9957 22.9956 16.4398 23 16.9921C23.003 17.3802 22.8931 17.7608 22.6836 18.0876C22.4745 18.4136 22.1752 18.6719 21.8222 18.8311C21.8214 18.8314 21.8207 18.8318 21.82 18.8321L13.2425 22.731C12.8537 22.907 12.4318 22.9981 12.005 22.9981C11.5782 22.9981 11.1563 22.907 10.7675 22.731L2.16 18.8175C1.81284 18.6569 1.51904 18.4 1.31344 18.0774C1.10784 17.7548 0.99906 17.3801 1.00001 16.9975C1.00137 16.4452 1.45019 15.9986 2.00248 16C2.55475 16.0014 3.00135 16.4502 3 17.0025L11.5925 20.909C11.5923 20.909 11.5927 20.9091 11.5925 20.909C11.722 20.9676 11.8629 20.9981 12.005 20.9981C12.1471 20.9981 12.2875 20.9678 12.417 20.9093C12.4168 20.9094 12.4171 20.9092 12.417 20.9093L21 17.0079C20.9957 16.4556 21.4398 16.0044 21.9921 16Z" fill="#0A0A0A"/>
</svg>
