<svg width="24" height="24" viewBox="0 0 24 24" fill="none" xmlns="http://www.w3.org/2000/svg">
<path fill-rule="evenodd" clip-rule="evenodd" d="M11.094 1.30468C11.3548 1.10684 11.6731 0.999748 12.0005 0.999748C12.3279 0.999748 12.6462 1.10684 12.907 1.30468C13.1678 1.50252 13.3568 1.78025 13.445 2.0955L13.4504 2.11545L15.0313 8.2502C15.0759 8.42323 15.1661 8.58115 15.2925 8.70751C15.4188 8.83381 15.5766 8.92397 15.7495 8.96864C15.7495 8.96861 15.7496 8.96866 15.7495 8.96864L21.8846 10.5496L21.9009 10.554C22.2174 10.6413 22.4965 10.83 22.6954 11.0912C22.8943 11.3524 23.0021 11.6717 23.0021 12C23.0021 12.3283 22.8943 12.6476 22.6954 12.9088C22.4965 13.17 22.2174 13.3587 21.9009 13.446L21.8846 13.4504L15.7498 15.0313C15.5768 15.0759 15.4189 15.1661 15.2925 15.2925C15.1661 15.4188 15.0759 15.5768 15.0313 15.7498L13.4493 21.8847L13.444 21.9045C13.3558 22.2197 13.1668 22.4975 12.906 22.6953C12.6452 22.8932 12.3269 23.0002 11.9995 23.0002C11.6721 23.0002 11.3538 22.8932 11.093 22.6953C10.8322 22.4975 10.6432 22.2197 10.555 21.9045L10.5496 21.8845L8.9687 15.7498C8.96868 15.7497 8.96872 15.7499 8.9687 15.7498C8.92404 15.5769 8.83381 15.4188 8.70751 15.2925C8.58115 15.1661 8.42324 15.0759 8.2502 15.0313L2.1153 13.4493L2.09195 13.443C1.77795 13.3539 1.50158 13.1648 1.30479 12.9043C1.108 12.6439 1.00153 12.3264 1.00153 12C1.00153 11.6736 1.108 11.3561 1.30479 11.0957C1.50158 10.8352 1.77795 10.6461 2.09195 10.557L2.11516 10.5507L8.25016 8.96771C8.42313 8.92311 8.58119 8.83295 8.70754 8.70668C8.83383 8.58048 8.92403 8.42278 8.96877 8.24994C8.96875 8.25003 8.96879 8.24985 8.96877 8.24994L10.5507 2.1153L10.556 2.0955C10.6442 1.78025 10.8332 1.50252 11.094 1.30468ZM12.0003 4.50319L13.0946 8.74955C13.2286 9.26865 13.4992 9.74264 13.8783 10.1217C14.2574 10.5008 14.7311 10.7714 15.2502 10.9053L19.4981 12L15.2505 13.0946C14.7313 13.2286 14.2574 13.4992 13.8783 13.8783C13.4992 14.2574 13.2286 14.7311 13.0947 15.2502L11.9997 19.4968L10.9054 15.2504C10.7714 14.7313 10.5008 14.2574 10.1217 13.8783C9.74264 13.4992 9.26891 13.2286 8.7498 13.0947L4.50394 11.9998L8.74966 10.9043C8.7496 10.9043 8.74972 10.9043 8.74966 10.9043C9.26851 10.7705 9.74224 10.5001 10.1213 10.1214C10.5003 9.74259 10.771 9.26916 10.9052 8.75033L12.0003 4.50319Z" fill="#0A0A0A"/>
<path fill-rule="evenodd" clip-rule="evenodd" d="M20 2C20.5523 2 21 2.44772 21 3V7C21 7.55228 20.5523 8 20 8C19.4477 8 19 7.55228 19 7V3C19 2.44772 19.4477 2 20 2Z" fill="#0A0A0A"/>
<path fill-rule="evenodd" clip-rule="evenodd" d="M17 5C17 4.44772 17.4477 4 18 4H22C22.5523 4 23 4.44772 23 5C23 5.55228 22.5523 6 22 6H18C17.4477 6 17 5.55228 17 5Z" fill="#0A0A0A"/>
<path fill-rule="evenodd" clip-rule="evenodd" d="M4 16C4.55228 16 5 16.4477 5 17V19C5 19.5523 4.55228 20 4 20C3.44772 20 3 19.5523 3 19V17C3 16.4477 3.44772 16 4 16Z" fill="#0A0A0A"/>
<path fill-rule="evenodd" clip-rule="evenodd" d="M2 18C2 17.4477 2.44772 17 3 17H5C5.55228 17 6 17.4477 6 18C6 18.5523 5.55228 19 5 19H3C2.44772 19 2 18.5523 2 18Z" fill="#0A0A0A"/>
</svg>
